<?xml version="1.0" encoding="utf-8"?>
<!-- Generator: Adobe Illustrator 24.3.0, SVG Export Plug-In . SVG Version: 6.00 Build 0)  -->
<svg version="1.1" id="레이어_1" xmlns="http://www.w3.org/2000/svg" xmlns:xlink="http://www.w3.org/1999/xlink" x="0px"
	 y="0px" viewBox="0 0 1920 1080" style="enable-background:new 0 0 1920 1080;" xml:space="preserve">
<style type="text/css">
	.st0{fill:none;}
	.st1{fill:none;stroke:#101010;stroke-width:3;}
	.st2{fill:#FFFFFF;}
	.st3{fill:#FFFFFF;stroke:#202020;stroke-width:1.5;}
	.st4{fill-rule:evenodd;clip-rule:evenodd;fill:#FFFFFF;}
	.st5{fill-rule:evenodd;clip-rule:evenodd;fill:#FFFFFF;stroke:#202020;stroke-width:1.5;stroke-miterlimit:4;}
	.st6{fill-rule:evenodd;clip-rule:evenodd;fill:#FFFFFF;stroke:#202020;stroke-width:1.5;}
	.st7{fill-rule:evenodd;clip-rule:evenodd;fill:#202020;}
	.st8{font-family:'AdobeMyungjoStd-Medium-KSCpc-EUC-H';}
	.st9{font-size:16px;}
	.st10{font-family:'Arial-BoldMT';}
	.st11{fill-rule:evenodd;clip-rule:evenodd;fill:#F2F2F2;}
	.st12{fill:#606060;}
	.st13{fill:none;stroke:#606060;stroke-width:3;}
	.st14{fill:none;stroke:#606060;stroke-width:2.5;}
	.st15{fill-rule:evenodd;clip-rule:evenodd;fill:#111111;stroke:#111111;stroke-width:3;}
	.st16{fill:#FFFFFF;stroke:#606060;stroke-width:2;}
	.st17{fill:#202020;}
	.st18{fill:#808080;}
	.st19{fill:none;stroke:#202020;stroke-width:3;}
	.st20{fill:none;stroke:#FFFFFF;stroke-width:3;}
	.st21{fill:#EE0700;}
	.st22{fill:#101010;}
	.st23{fill:#008A00;}
	.st24{fill:#F9F9F9;}
	.st25{fill:#BDD61A;}
	.st26{fill:#F9F9F9;stroke:#202020;stroke-width:3;}
	.st27{fill:none;stroke:#202020;stroke-width:1.89;}
	.st28{fill:#DDDDDD;}
	.st29{fill:#303030;}
	.st30{opacity:0.8;}
	.st31{fill:#B0B0B0;stroke:#606060;stroke-width:2;}
	.st32{fill:none;stroke:#FFFFFF;stroke-width:3;stroke-linecap:round;}
	.st33{fill:#F2F2F2;}
	.st34{fill:#111111;}
	.st35{fill:#F2F2F2;stroke:#606060;stroke-width:3;}
	.st36{font-size:18px;}
	.st37{font-family:'ArialMT';}
	.st38{opacity:0.55;}
	.st39{opacity:0.55;enable-background:new    ;}
	.st40{fill:none;stroke:#FFFFFF;stroke-width:2;}
	.st41{fill:none;stroke:#008A00;stroke-width:3;}
	.st42{fill-rule:evenodd;clip-rule:evenodd;fill:#EE0700;stroke:#EE0700;stroke-width:3;}
	.st43{fill:#B0B0B0;stroke:#808080;stroke-width:2;}
	.st44{fill:#215621;}
	.st45{fill-rule:evenodd;clip-rule:evenodd;fill:#606060;}
	.st46{fill-rule:evenodd;clip-rule:evenodd;fill:#BDD61A;}
	.st47{fill-opacity:0.5;}
</style>
<g id="Artboard">
	<g id="ico_set01">
		<g id="글쓰기-아이콘40_x2A_40" transform="translate(760.000000, 0.000000)">
			<g id="MY_x2F_Icon_x2F_icon_x5F_review">
				<rect id="Rectangle" x="447.2" y="176" class="st0" width="40" height="40"/>
				
					<g id="Group-Copy" transform="translate(20.223318, 18.807691) rotate(-9.000000) translate(-20.223318, -18.807691) translate(7.723318, 6.807691)">
					<polygon id="Path" class="st1" points="415,261.7 414.1,267.8 420.5,267 421.2,266.3 439.1,249.1 433.6,243.8 415.7,261.1 
											"/>
					<path id="Path-7" class="st1" d="M429,249.3l5.3,5.3"/>
				</g>
			</g>
		</g>
		<g id="선물아이콘88_x2A_88" transform="translate(252.000000, 0.000000)">
			<ellipse id="Oval-Copy" class="st2" cx="491" cy="220" rx="43.8" ry="43.9"/>
			<g id="Group-21" transform="translate(24.906523, 26.966292)">
				<path id="Rectangle_1_" class="st3" d="M451.9,189.8h28.4c0.6,0,1,0.4,1,1v18.5c0,0.6-0.4,1-1,1h-28.4c-0.6,0-1-0.4-1-1v-18.5
					C450.9,190.2,451.4,189.8,451.9,189.8z"/>
				<path id="Rectangle_2_" class="st3" d="M448.9,183.8h34.4c0.6,0,1,0.4,1,1v4.5c0,0.6-0.4,1-1,1h-34.4c-0.6,0-1-0.4-1-1v-4.5
					C447.9,184.2,448.4,183.8,448.9,183.8z"/>
				<path id="Rectangle_3_" class="st3" d="M463.9,183.8h4.5c0.6,0,1,0.4,1,1v24.5c0,0.6-0.4,1-1,1h-4.5c-0.6,0-1-0.4-1-1v-24.5
					C462.9,184.2,463.3,183.8,463.9,183.8z"/>
				<path id="Path-2" class="st3" d="M465.5,183.4c-0.6-1.9-1.1-3.2-1.6-3.9c-1.7-2.3-4.2-3.2-6.2-2.6c-1.8,0.5-2.9,2-2.8,3.7
					c0.1,1.7,1.4,2.8,3.9,2.8C463.3,183.4,464.1,183.4,465.5,183.4z"/>
				<path id="Path-2_1_" class="st3" d="M466.1,183.4c0.6-1.9,1.1-3.2,1.6-3.9c1.7-2.3,4.2-3.2,6.2-2.6c1.8,0.5,2.9,2,2.8,3.7
					c-0.1,1.7-1.4,2.8-3.9,2.8C468.3,183.4,467.5,183.4,466.1,183.4z"/>
			</g>
		</g>
		<g id="기획전아이콘88_x2A_88" transform="translate(340.000000, 0.000000)">
			<g id="PD_x2F_icon_x2F_icon_x5F_06">
				<circle id="Oval-Copy_1_" class="st4" cx="491.2" cy="220" r="44"/>
				
					<g id="Group-21_1_" transform="translate(48.242641, 41.121320) rotate(-45.000000) translate(-48.242641, -41.121320) translate(22.742641, 23.621320)">
					<path id="Rectangle_4_" class="st5" d="M194.4,455.2C194.4,455.2,194.4,455.2,194.4,455.2c-0.1,0-0.2,0.2-0.2,0.3l4.7,18.7
						c0,0.1,0.2,0.2,0.3,0.2l30.6-6.4c0.1,0,0.1-0.1,0.2-0.1l8.7-13.5c0,0,0,0,0,0c0.1-0.1,0-0.3-0.1-0.3l-14.1-5.9c0,0-0.1,0-0.2,0
						L194.4,455.2z"/>
					<path id="Rectangle_5_" class="st6" d="M192.7,441.4c-0.1,0-0.3,0.1-0.3,0.3v24c0,0.1,0.1,0.3,0.3,0.3h34.6
						c0.1,0,0.1,0,0.2-0.1l11.1-12c0.1-0.1,0.1-0.2,0-0.3l-11.1-12c0-0.1-0.1-0.1-0.2-0.1H192.7z"/>
					<path id="Star" class="st5" d="M206.6,457.5l3.6-0.8l2.7,2.5c0,0,0.1,0.1,0.1,0.1c0.1,0,0.3-0.1,0.3-0.2l0.3-3.7l3.2-1.8
						c0,0,0.1-0.1,0.1-0.1c0.1-0.1,0-0.3-0.1-0.3l-3.4-1.5l-0.7-3.6c0-0.1,0-0.1-0.1-0.1c-0.1-0.1-0.3-0.1-0.4,0l-2.4,2.8l-3.7-0.4
						c-0.1,0-0.1,0-0.2,0c-0.1,0.1-0.2,0.2-0.1,0.3l1.9,3.2l-1.5,3.3c0,0,0,0.1,0,0.2C206.4,457.5,206.5,457.6,206.6,457.5z"/>
					<circle id="Oval" class="st6" cx="230.7" cy="453.7" r="1.2"/>
				</g>
			</g>
		</g>
		<g id="비디오아이콘28_x2A_28" transform="translate(614.000000, 0.000000)">
			<path id="Triangle-2" class="st2" d="M468.3,190.4l-14,7.9c-0.1,0.1-0.2,0-0.3-0.1c0,0,0-0.1,0-0.1v-15.7c0-0.1,0.1-0.2,0.2-0.2
				c0,0,0.1,0,0.1,0l14,7.9C468.4,190.1,468.4,190.2,468.3,190.4C468.3,190.3,468.3,190.4,468.3,190.4z"/>
		</g>
		<g id="메뉴리스트형아이콘64_x2A_64" transform="translate(0.000000, 270.000000)">
			<g id="Group-5" transform="translate(256.000000, 0.000000)">
				<ellipse id="Oval_1_" class="st7" cx="475" cy="211" rx="31.9" ry="32"/>
				<text transform="matrix(1 0 0 1 454.2822 208.0417)" class="st2 st8 st9">재입고</text>
				<text transform="matrix(1 0 0 1 490.2822 208.0417)" class="st2 st10 st9"> </text>
				<text transform="matrix(1 0 0 1 461.2022 227.0417)" class="st2 st8 st9">알림</text>
			</g>
			<g id="Group-5_1_" transform="translate(192.000000, 0.000000)">
				<ellipse id="Oval_2_" class="st11" cx="475" cy="211" rx="31.9" ry="32"/>
				<text transform="matrix(1 0 0 1 454.2822 208.0417)" class="st12 st8 st9">재입고</text>
				<text transform="matrix(1 0 0 1 490.2822 208.0417)" class="st12 st10 st9"> </text>
				<text transform="matrix(1 0 0 1 461.2022 227.0417)" class="st12 st8 st9">알림</text>
			</g>
			<g id="Group-5_2_" transform="translate(384.000000, 0.000000)">
				<ellipse id="Oval_3_" class="st7" cx="475" cy="211" rx="31.9" ry="32"/>
				<text transform="matrix(1 0 0 1 454.2822 208.0417)" class="st2 st8 st9">재판매</text>
				<text transform="matrix(1 0 0 1 490.2822 208.0417)" class="st2 st10 st9"> </text>
				<text transform="matrix(1 0 0 1 461.2022 227.0417)" class="st2 st8 st9">알림</text>
			</g>
			<g id="Group-5_3_" transform="translate(320.000000, 0.000000)">
				<ellipse id="Oval_4_" class="st11" cx="475" cy="211" rx="31.9" ry="32"/>
				<text transform="matrix(1 0 0 1 454.2822 208.0417)" class="st12 st8 st9">재판매</text>
				<text transform="matrix(1 0 0 1 490.2822 208.0417)" class="st12 st10 st9"> </text>
				<text transform="matrix(1 0 0 1 461.2022 227.0417)" class="st12 st8 st9">알림</text>
			</g>
			<g id="PD_x2F_Component_x2F_btn_x5F_buy_x5F_64">
				<g id="PD_x2F_Component_x2F_btn_x5F_buy">
					<circle id="Oval_5_" class="st11" cx="475.2" cy="211" r="32"/>
					<g id="GR_x2F_Icon_x2F_Icon_x5F_cart_x5F_40_x5F_off" transform="translate(12.000000, 14.000000)">
						<g id="Group-5_4_" transform="translate(2.000000, 5.000000)">
							<path id="Path-2_2_" class="st13" d="M443.2,179h5.3l5.4,20.1h14.7c2.7,0,4.4-1.5,5.1-4.5c0.7-2.7,1.4-5.7,2-9h-24.3"/>
							<ellipse id="Oval_6_" class="st14" cx="456.1" cy="205.8" rx="1.8" ry="1.8"/>
							<ellipse id="Oval_7_" class="st14" cx="467.5" cy="205.8" rx="1.8" ry="1.8"/>
						</g>
					</g>
				</g>
			</g>
			<g id="PD_x2F_Component_x2F_btn_x5F_like_x5F_64" transform="translate(64.000000, 0.000000)">
				<g id="PD_x2F_Component_x2F_btn_x5F_like">
					<circle id="Oval_8_" class="st11" cx="475.2" cy="211" r="32"/>
					<g id="GR_x2F_Icon_x2F_Icon_x5F_like_x5F_off_x5F_40_x5F_off" transform="translate(12.000000, 13.000000)">
						<path id="Stroke-9" class="st13" d="M463.1,211.1l12.5-12.1c2.6-2.9,2.6-7.7,0-10.6c-2.5-2.8-6.6-2.8-9.1,0l-3.3,3.6l-1.1-1.2
							l-2-2.3c-2.5-2.8-6.6-2.8-9.1,0c-2.6,2.9-2.6,7.7-0.1,10.5L463.1,211.1z"/>
					</g>
				</g>
			</g>
			<g id="Group-11" transform="translate(128.000000, 0.000000)">
				<circle id="Oval_9_" class="st11" cx="475.2" cy="211" r="32"/>
				<path id="Stroke-9_1_" class="st15" d="M474.9,224.3l12.5-12.1c2.6-2.9,2.6-7.7,0-10.6c-2.5-2.8-6.6-2.8-9.1,0l-3.3,3.6
					l-1.1-1.2l-2-2.3c-2.5-2.8-6.6-2.8-9.1,0c-2.6,2.9-2.6,7.7-0.1,10.5L474.9,224.3z"/>
			</g>
		</g>
		<g id="목록솔팅아이콘_x5F_off40_x2A_40" transform="translate(620.000000, 560.000000)">
			<g id="Group-9" transform="translate(60.000000, 0.000000)">
				<g id="PD_x2F_Icon_x2F_viewmode_x5F_full_x5F_off" transform="translate(10.000000, 10.000000)">
					<rect id="Rectangle_6_" x="447.2" y="176" class="st0" width="39.8" height="40"/>
					<path id="Combined-Shape" class="st16" d="M450.1,179v24h33.8v-24H450.1z M450.1,208v5h33.8v-5H450.1z"/>
				</g>
			</g>
			<g id="Group-10" transform="translate(120.000000, 0.000000)">
				<g id="PD_x2F_Icon_x2F_viewmode_x5F_list_x5F_off" transform="translate(10.000000, 10.000000)">
					<rect id="Rectangle_7_" x="447.2" y="176" class="st0" width="39.8" height="40"/>
					<path id="Combined-Shape_1_" class="st16" d="M450.1,179v14h33.8v-14H450.1z M450.1,199v14h33.8v-14H450.1z"/>
				</g>
			</g>
			<g id="Group-12">
				<g id="PD_x2F_Icon_x2F_viewmode_x5F_square_x5F_off" transform="translate(10.000000, 10.000000)">
					<rect id="Rectangle_8_" x="447.2" y="176" class="st0" width="39.8" height="40"/>
					<path id="Combined-Shape_2_" class="st16" d="M450.1,199v14h13.9v-14H450.1z M470,199v14h13.9v-14H470z M450.1,179v14h13.9v-14
						H450.1z M470,179v14h13.9v-14H470z"/>
				</g>
			</g>
		</g>
		<g id="목록솔팅아이콘_x5F_on40_x2A_40" transform="translate(620.000000, 620.000000)">
			<g id="Group-13" transform="translate(60.000000, 0.000000)">
				<g id="PD_x2F_Icon_x2F_viewmode_x5F_full_x5F_on" transform="translate(10.000000, 10.000000)">
					<rect id="Rectangle_9_" x="447.2" y="176" class="st0" width="39.8" height="40"/>
					<path id="Combined-Shape_3_" class="st17" d="M449.2,178h35.8v26h-35.8V178z M449.2,207h35.8v7h-35.8V207z"/>
				</g>
			</g>
			<g id="Group-15">
				<g id="PD_x2F_Icon_x2F_viewmode_x5F_square_x5F_on" transform="translate(10.000000, 10.000000)">
					<rect id="Rectangle_10_" x="447.2" y="176" class="st0" width="39.8" height="40"/>
					<path id="Combined-Shape_4_" class="st17" d="M449.2,198h15.9v16h-15.9V198z M469,198h15.9v16H469V198z M449.2,178h15.9v16
						h-15.9V178z M469,178h15.9v16H469V178z"/>
				</g>
			</g>
			<g id="Group-14" transform="translate(120.000000, 0.000000)">
				<g id="PD_x2F_Icon_x2F_viewmode_x5F_list_x5F_on" transform="translate(10.000000, 10.000000)">
					<rect id="Rectangle_11_" x="447.2" y="176" class="st0" width="39.8" height="40"/>
					<path id="Combined-Shape_5_" class="st17" d="M449.2,178h35.8v16h-35.8V178z M449.2,198h35.8v16h-35.8V198z"/>
				</g>
			</g>
		</g>
		<g id="상세플로팅닫기104_x2A_104" transform="translate(542.000000, 286.000000)">
			<g id="GR_x2F_Header_x2F_btn_x5F_close_x5F_w">
				<g id="icon_x2F_header_x2F_menu_x5F_green">
					<polygon id="Shape" class="st0" points="447.2,176 499,176 499,228 447.2,228 					"/>
					<g id="Group" transform="translate(10.958870, 9.987516)">
						<polygon id="Rectangle-2" class="st2" points="447.4,178.9 449.5,176.9 477.6,205.1 475.6,207.2 						"/>
						<polygon id="Rectangle-2_1_" class="st2" points="477.6,178.9 475.6,176.9 447.4,205.1 449.5,207.2 						"/>
					</g>
				</g>
			</g>
		</g>
		<g id="_x28_new_x29_플러스마이너스" transform="translate(640.000000, 305.000000)">
			<polygon id="Combined-Shape_6_" class="st18" points="502.2,183 502.2,176 504.2,176 504.2,183 511.2,183 511.2,185 504.2,185 
				504.2,192 502.2,192 502.2,185 495.2,185 495.2,183 			"/>
			<rect id="Rectangle-5-Copy-3" x="447.2" y="183" class="st18" width="16" height="2"/>
		</g>
		<g id="상세아이콘32_x2A_32" transform="translate(661.000000, 0.000000)">
			<g id="icon_time" transform="translate(31.000000, 0.001248)">
				<circle id="Oval_10_" class="st19" cx="463.2" cy="192" r="14.5"/>
				<polyline id="Path-3" class="st19" points="462.7,184 462.7,193.2 469.8,193.2 				"/>
			</g>
			<g id="icon_time_1_" transform="translate(63.000000, 0.001248)">
				<circle id="Oval_11_" class="st20" cx="463.2" cy="192" r="14.5"/>
				<polyline id="Path-3_1_" class="st20" points="462.7,184 462.7,193.2 469.8,193.2 				"/>
			</g>
			<g id="icon_people" transform="translate(0.000000, 2.001248)">
				<path id="Oval_12_" class="st19" d="M474.6,202.5c-0.6-6.9-5.4-12-12.9-12c-7.5,0-12.3,5.1-12.9,12c7.6,0,8,0,13.5,0
					C467.3,202.5,467.6,202.5,474.6,202.5z"/>
				<circle id="Oval-Copy-4" class="st19" cx="461.7" cy="183.5" r="6"/>
			</g>
		</g>
		<g id="매운맛단계아이콘32_x2A_32" transform="translate(708.000000, 351.000000)">
			<g id="spicy_high" transform="translate(64.000000, 0.000000)">
				<path id="Path_1_" class="st21" d="M461,185.1c0.4-1.7,0.4-2.8,0.4-2.8s7.6,6.8,7.6,12.9c0,0.1,0,0.2,0,0.3c0,0.1,0,0.2,0,0.3
					c0,6.1-4.8,11.1-10.8,11.1s-10.8-4.8-10.8-13.2c0-8.4,10.8-17.6,10.8-17.6S458.2,180.6,461,185.1z"/>
				<g id="Group_1_">
					<path id="Shape_1_" class="st22" d="M461.4,182.3c0,0,0,1.2-0.4,2.8c-2.8-4.5-2.8-9-2.8-9s-10.8,9.2-10.8,17.6
						c0,8.4,4.8,13.2,10.8,13.2s10.8-5,10.8-11.1c0-0.1,0-0.2,0-0.3c0-0.1,0-0.2,0-0.3C469,189.1,461.4,182.3,461.4,182.3z
						 M467.1,195.5c0,0.1,0,0.2,0,0.2c0,5.1-4,9.3-9,9.3c-5.4,0-9-4.6-9-11.3c0-3,1.7-6.7,5-10.8c1-1.1,2-2.2,2.8-3
						c0.4,1.8,1.2,4,2.5,6.2l2.2,3.6l0.9-3.6c2.1,2.5,4.6,6.1,4.6,9.1C467.1,195.3,467.1,195.4,467.1,195.5z"/>
					<path id="Shape_2_" class="st22" d="M461.3,192.8c-0.3-0.6-0.7-1.2-1.1-1.7c-0.2-0.3-0.4-0.6-0.5-0.7l-1.5-1.8l-1.4,1.8
						c-0.1,0.1-0.3,0.4-0.5,0.7c-0.4,0.6-0.8,1.2-1.1,1.7c-0.5,0.8-0.8,1.5-1.1,2.1c-0.5,1.1-0.7,2.1-0.7,2.9c0,3.3,2,5.6,4.9,5.6
						s4.9-2.3,4.9-5.6c0-0.9-0.2-1.8-0.7-2.9C462.2,194.3,461.8,193.6,461.3,192.8z M458.2,201.7c-1.8,0-3.1-1.5-3.1-3.8
						c0-0.6,0.2-1.4,0.6-2.2c0.2-0.6,0.6-1.2,1-1.9c0.3-0.5,0.7-1.1,1.1-1.6c0.2-0.3,0.4-0.5,0.5-0.7l0,0c0.1,0.1,0.3,0.3,0.5,0.6
						c0.4,0.5,0.7,1.1,1.1,1.6c0.4,0.7,0.7,1.3,1,1.9c0.4,0.9,0.6,1.6,0.6,2.2C461.3,200.2,460.1,201.7,458.2,201.7z"/>
				</g>
			</g>
			<g id="spicy_low">
				<path id="Path_2_" class="st21" d="M448.4,199.8c1.7,4.6,5.4,7.1,9.8,7.1c4.6,0,8.5-3,10.1-7.1H448.4L448.4,199.8z"/>
				<g id="Group_2_">
					<path id="Shape_3_" class="st22" d="M461.4,182.3c0,0,0,1.2-0.4,2.8c-2.8-4.5-2.8-9-2.8-9s-10.8,9.2-10.8,17.6
						c0,8.4,4.8,13.2,10.8,13.2s10.8-5,10.8-11.1c0-0.1,0-0.2,0-0.3c0-0.1,0-0.2,0-0.3C469,189.1,461.4,182.3,461.4,182.3z
						 M467.1,195.5c0,0.1,0,0.2,0,0.2c0,5.1-4,9.3-9,9.3c-5.4,0-9-4.6-9-11.3c0-3,1.7-6.7,5-10.8c1-1.1,2-2.2,2.8-3
						c0.4,1.8,1.2,4,2.5,6.2l2.2,3.6l0.9-3.6c2.1,2.5,4.6,6.1,4.6,9.1C467.1,195.3,467.1,195.4,467.1,195.5z"/>
					<path id="Shape_4_" class="st22" d="M461.3,192.8c-0.3-0.6-0.7-1.2-1.1-1.7c-0.2-0.3-0.4-0.6-0.5-0.7l-1.5-1.8l-1.4,1.8
						c-0.1,0.1-0.3,0.4-0.5,0.7c-0.4,0.6-0.8,1.2-1.1,1.7c-0.5,0.8-0.8,1.5-1.1,2.1c-0.5,1.1-0.7,2.1-0.7,2.9c0,3.3,2,5.6,4.9,5.6
						s4.9-2.3,4.9-5.6c0-0.9-0.2-1.8-0.7-2.9C462.2,194.3,461.8,193.6,461.3,192.8z M458.2,201.7c-1.8,0-3.1-1.5-3.1-3.8
						c0-0.6,0.2-1.4,0.6-2.2c0.2-0.6,0.6-1.2,1-1.9c0.3-0.5,0.7-1.1,1.1-1.6c0.2-0.3,0.4-0.5,0.5-0.7l0,0c0.1,0.1,0.3,0.3,0.5,0.6
						c0.4,0.5,0.7,1.1,1.1,1.6c0.4,0.7,0.7,1.3,1,1.9c0.4,0.9,0.6,1.6,0.6,2.2C461.3,200.2,460.1,201.7,458.2,201.7z"/>
				</g>
			</g>
			<g id="spicy_middle" transform="translate(32.000000, 0.000000)">
				<path id="Rectangle_12_" class="st21" d="M448.2,193h20.2v2.8c0,5.6-4.5,10.2-10.1,10.2l0,0c-5.6,0-10.1-4.6-10.1-10.2V193z"/>
				<g id="Group_3_">
					<path id="Shape_5_" class="st22" d="M461.4,182.3c0,0,0,1.2-0.4,2.8c-2.8-4.5-2.8-9-2.8-9s-10.8,9.2-10.8,17.6
						c0,8.4,4.8,13.2,10.8,13.2s10.8-5,10.8-11.1c0-0.1,0-0.2,0-0.3c0-0.1,0-0.2,0-0.3C469,189.1,461.4,182.3,461.4,182.3z
						 M467.1,195.5c0,0.1,0,0.2,0,0.2c0,5.1-4,9.3-9,9.3c-5.4,0-9-4.6-9-11.3c0-3,1.7-6.7,5-10.8c1-1.1,2-2.2,2.8-3
						c0.4,1.8,1.2,4,2.5,6.2l2.2,3.6l0.9-3.6c2.1,2.5,4.6,6.1,4.6,9.1C467.1,195.3,467.1,195.4,467.1,195.5z"/>
					<path id="Shape_6_" class="st22" d="M461.3,192.8c-0.3-0.6-0.7-1.2-1.1-1.7c-0.2-0.3-0.4-0.6-0.5-0.7l-1.5-1.8l-1.4,1.8
						c-0.1,0.1-0.3,0.4-0.5,0.7c-0.4,0.6-0.8,1.2-1.1,1.7c-0.5,0.8-0.8,1.5-1.1,2.1c-0.5,1.1-0.7,2.1-0.7,2.9c0,3.3,2,5.6,4.9,5.6
						s4.9-2.3,4.9-5.6c0-0.9-0.2-1.8-0.7-2.9C462.2,194.3,461.8,193.6,461.3,192.8z M458.2,201.7c-1.8,0-3.1-1.5-3.1-3.8
						c0-0.6,0.2-1.4,0.6-2.2c0.2-0.6,0.6-1.2,1-1.9c0.3-0.5,0.7-1.1,1.1-1.6c0.2-0.3,0.4-0.5,0.5-0.7l0,0c0.1,0.1,0.3,0.3,0.5,0.6
						c0.4,0.5,0.7,1.1,1.1,1.6c0.4,0.7,0.7,1.3,1,1.9c0.4,0.9,0.6,1.6,0.6,2.2C461.3,200.2,460.1,201.7,458.2,201.7z"/>
				</g>
			</g>
		</g>
		<g id="리스트별점아이콘32_x2A_32" transform="translate(768.000000, 48.000000)">
			<g id="GR_x2F_Icon_x2F_Icon_x5F_star_x5F_32_x5F_on" transform="translate(2.000000, 3.000000)">
				<polygon id="Star-2" class="st23" points="460.7,197.6 452.3,202 453.9,192.6 447.2,186 456.5,184.6 460.7,176 464.8,184.6 
					474.2,186 467.4,192.6 469,202 				"/>
			</g>
		</g>
		<g id="상세아이콘80_x2A_80" transform="translate(2.000000, 350.000000)">
			<g id="PD_x2F_icon_x2F_icon_x5F_03" transform="translate(318.666667, 0.433208)">
				<g id="icon-3">
					<ellipse id="Mask" class="st24" cx="526.8" cy="256" rx="79.7" ry="80"/>
					<g id="Group-9_1_" transform="translate(39.833333, 45.000000)">
						<polygon id="Rectangle_13_" class="st19" points="460.6,176.5 460.6,239.5 509.4,239.5 509.4,176.5 						"/>
						<path id="Rectangle_14_" class="st17" d="M468.7,202h1.7c0.4,0,0.7,0.3,0.7,0.6v8.7c0,0.4-0.3,0.7-0.7,0.7h-1.7
							c-0.4,0-0.6-0.3-0.6-0.7v-8.7C468.1,202.3,468.4,202,468.7,202z"/>
						<path id="Rectangle_15_" class="st17" d="M447.8,238h17.6c0.4,0,0.6,0.3,0.6,0.6v1.7c0,0.4-0.3,0.7-0.6,0.7h-17.6
							c-0.4,0-0.7-0.3-0.7-0.7v-1.7C447.2,238.3,447.5,238,447.8,238z"/>
						<path id="Rectangle_16_" class="st17" d="M512.5,238h14.6c0.4,0,0.7,0.3,0.7,0.6v1.7c0,0.4-0.3,0.7-0.7,0.7h-14.6
							c-0.4,0-0.6-0.3-0.6-0.7v-1.7C511.9,238.3,512.2,238,512.5,238z"/>
						<g id="Group-4" transform="translate(29.148716, 37.272727)">
							<path id="Rectangle_17_" class="st25" d="M449.2,176.8h38.2c0.7,0,1.3,0.6,1.3,1.3v30.4c0,0.7-0.6,1.3-1.3,1.3h-38.2
								c-0.7,0-1.3-0.6-1.3-1.3v-30.4C447.9,177.4,448.5,176.8,449.2,176.8z"/>
							<path id="Rectangle_18_" class="st17" d="M464.8,176.8h9v12.4c0,0.4-0.3,0.6-0.6,0.6h-7.7c-0.4,0-0.6-0.3-0.6-0.6V176.8z"/>
						</g>
					</g>
				</g>
			</g>
			<g id="PD_x2F_icon_x2F_icon_x5F_02" transform="translate(159.333333, 0.433208)">
				<g id="icon-2">
					<ellipse id="Mask-Copy-2" class="st24" cx="526.8" cy="256" rx="79.7" ry="80"/>
					<path id="Combined-Shape-Copy" class="st25" d="M491.5,259.9L491.5,259.9c0.6-0.7,1.2-1.3,1.8-1.8l13-13.1H524l12.9,12.6
						c3.6,2.8,5.9,7.1,5.9,12c0,8.4-6.7,15.1-14.9,15.1c-1,0-2-0.1-3-0.3c-2.6,2.2-5.9,3.5-9.5,3.5c-3.6,0-6.9-1.3-9.5-3.5
						c-1,0.2-2,0.3-3,0.3c-8.2,0-14.9-6.8-14.9-15.1C488,266,489.3,262.6,491.5,259.9L491.5,259.9z"/>
					<path id="Path_3_" class="st17" d="M530.8,272.6c0,8.5-6.9,15.4-15.4,15.4c-8.5,0-15.4-6.9-15.4-15.4c0-2,0.4-3.9,1.1-5.6
						l2.9,1.1c-0.6,1.4-0.8,3-0.8,4.5c0,6.9,5.5,12.4,12.3,12.4c6.8,0,12.3-5.5,12.3-12.4H530.8z"/>
					<rect id="Rectangle-Copy-5" x="513.9" y="231" class="st17" width="3" height="11"/>
					<polygon id="Rectangle-Copy-6" class="st17" points="523.3,233 526.2,233.8 523.7,243 520.9,242.2 					"/>
					<polygon id="Rectangle-Copy-7" class="st17" points="506.8,233 503.9,233.8 506.4,243 509.3,242.2 					"/>
					<rect id="Rectangle-Copy-11" x="538.8" y="218" class="st17" width="3" height="22"/>
					<path id="Combined-Shape-Copy-2" class="st26" d="M557.3,258.7L557.3,258.7l-0.2-0.2c-3.7-4.1-5.9-8.4-6.4-13.1l0-0.2v-6.7
						c0-2.8-2.2-5-5-5h-10.5c-2.7,0-5,2.2-5,5v7.7l0,0.1c-0.4,4.7-2.5,9.1-6.2,13.4l-0.1,0.1c-2.9,2.9-4.6,6.8-4.6,11
						c0,8.6,7,15.6,15.7,15.6c2,0,3.9-0.4,5.7-1.1l0.5-0.2l0.5,0.2c1.8,0.7,3.7,1.1,5.7,1.1c8.7,0,15.7-7,15.7-15.6
						C563.2,266.1,561,261.7,557.3,258.7z"/>
					<path id="Path-2-Copy" class="st19" d="M542.8,224.7c6.6,4.7,12,3.6,16.9-3.5C552.7,216.8,547.3,217.9,542.8,224.7z"/>
				</g>
			</g>
			<g id="PD_x2F_icon_x2F_icon_x5F_01" transform="translate(0.000000, 0.433208)">
				<g id="Group-2">
					<ellipse id="Mask-Copy" class="st24" cx="526.8" cy="256" rx="79.7" ry="80"/>
					<ellipse id="Oval-Copy-4_1_" class="st19" cx="531.3" cy="255.5" rx="34.9" ry="35"/>
					<rect id="Rectangle-Copy" x="483" y="262" class="st25" width="43.8" height="30"/>
					<rect id="Rectangle-Copy-2" x="483" y="270" class="st17" width="43.8" height="3"/>
					<rect id="Rectangle-Copy-10" x="513.8" y="283" class="st27" width="6.1" height="1.1"/>
					<path id="Path_4_" class="st17" d="M545.9,247.8l1.7,2.5l-14.9,10c-1,0.7-2.3-0.1-2.3-1.2v-24h3v21.2L545.9,247.8z"/>
				</g>
			</g>
		</g>
		<g id="맛평가아이콘-24_x2A_24" transform="translate(256.000000, 112.000000)">
			<g id="맛평가">
				<rect id="Rectangle_19_" x="447.2" y="176" class="st28" width="23.9" height="6"/>
				<rect id="Rectangle_20_" x="447.2" y="185" class="st28" width="23.9" height="6"/>
				<rect id="Rectangle_21_" x="447.2" y="194" class="st29" width="23.9" height="6"/>
			</g>
			<g id="맛평가_1_" transform="translate(23.910262, 0.000000)">
				<rect id="Rectangle_22_" x="447.2" y="176" class="st28" width="23.9" height="6"/>
				<rect id="Rectangle_23_" x="447.2" y="185" class="st29" width="23.9" height="6"/>
				<rect id="Rectangle_24_" x="447.2" y="194" class="st29" width="23.9" height="6"/>
			</g>
			<g id="맛평가_2_" transform="translate(47.820523, 0.000000)">
				<rect id="Rectangle_25_" x="447.2" y="176" class="st29" width="23.9" height="6"/>
				<rect id="Rectangle_26_" x="447.2" y="185" class="st29" width="23.9" height="6"/>
				<rect id="Rectangle_27_" x="447.2" y="194" class="st29" width="23.9" height="6"/>
			</g>
		</g>
		<g id="중간별_on_off">
			<g id="중간별_on" transform="translate(0.000000, 36.000000)">
				<g id="Group-17">
					<g id="Group-16" transform="translate(1.000000, 3.000000)">
						<g id="GR_x2F_Icon_x2F_Icon_x5F_star_x5F_36_x5F_on" transform="translate(119.371728, 0.000000)">
							<g id="Star-2_1_">
								<polygon id="Path_5_" class="st23" points="462.6,200.9 453.1,206 454.9,195.2 447.2,187.5 457.8,185.9 462.6,176 
									467.4,185.9 478,187.5 470.3,195.2 472.1,206 								"/>
							</g>
						</g>
						<g id="GR_x2F_Icon_x2F_Icon_x5F_star_x5F_36_x5F_on_1_" transform="translate(159.162304, 0.000000)">
							<g id="Star-2_2_">
								<polygon id="Path_6_" class="st23" points="462.6,200.9 453.1,206 454.9,195.2 447.2,187.5 457.8,185.9 462.6,176 
									467.4,185.9 478,187.5 470.3,195.2 472.1,206 								"/>
							</g>
						</g>
						<g id="GR_x2F_Icon_x2F_Icon_x5F_star_x5F_36_x5F_on_2_" transform="translate(79.581152, 0.000000)">
							<g id="Star-2_3_">
								<polygon id="Path_7_" class="st23" points="462.6,200.9 453.1,206 454.9,195.2 447.2,187.5 457.8,185.9 462.6,176 
									467.4,185.9 478,187.5 470.3,195.2 472.1,206 								"/>
							</g>
						</g>
						<g id="GR_x2F_Icon_x2F_Icon_x5F_star_x5F_36_x5F_on_3_" transform="translate(39.790576, 0.000000)">
							<g id="Star-2_4_">
								<polygon id="Path_8_" class="st23" points="462.6,200.9 453.1,206 454.9,195.2 447.2,187.5 457.8,185.9 462.6,176 
									467.4,185.9 478,187.5 470.3,195.2 472.1,206 								"/>
							</g>
						</g>
						<g id="GR_x2F_Icon_x2F_Icon_x5F_star_x5F_36_x5F_on_4_">
							<polygon id="Star-2_5_" class="st23" points="462.6,200.9 453.1,206 454.9,195.2 447.2,187.5 457.8,185.9 462.6,176 
								467.4,185.9 478,187.5 470.3,195.2 472.1,206 							"/>
						</g>
					</g>
				</g>
			</g>
			<g id="중간별_off" class="st30">
				<g id="Group-6" transform="translate(0.015707, 0.000000)">
					<g id="Group-16_1_" transform="translate(4.000000, 6.000000)">
						<g id="GR_x2F_Icon_x2F_Icon_x5F_star_x5F_36_x5F_off">
							<polygon id="Star-2_6_" class="st31" points="467.2,200.2 465.7,191.6 471.9,185.4 463.4,184.2 459.6,176.3 455.8,184.2 
								447.3,185.4 453.5,191.6 452,200.2 459.6,196.1 							"/>
						</g>
						<g id="GR_x2F_Icon_x2F_Icon_x5F_star_x5F_36_x5F_off_1_" transform="translate(39.790576, 0.000000)">
							<polygon id="Star-2_7_" class="st31" points="467.2,200.2 465.7,191.6 471.9,185.4 463.4,184.2 459.6,176.3 455.8,184.2 
								447.3,185.4 453.5,191.6 452,200.2 459.6,196.1 							"/>
						</g>
						<g id="GR_x2F_Icon_x2F_Icon_x5F_star_x5F_36_x5F_off_2_" transform="translate(119.371728, 0.000000)">
							<polygon id="Star-2_8_" class="st31" points="467.2,200.2 465.7,191.6 471.9,185.4 463.4,184.2 459.6,176.3 455.8,184.2 
								447.3,185.4 453.5,191.6 452,200.2 459.6,196.1 							"/>
						</g>
						<g id="GR_x2F_Icon_x2F_Icon_x5F_star_x5F_36_x5F_off_3_" transform="translate(159.162304, 0.000000)">
							<polygon id="Star-2_9_" class="st31" points="467.2,200.2 465.7,191.6 471.9,185.4 463.4,184.2 459.6,176.3 455.8,184.2 
								447.3,185.4 453.5,191.6 452,200.2 459.6,196.1 							"/>
						</g>
						<g id="GR_x2F_Icon_x2F_Icon_x5F_star_x5F_36_x5F_off-Copy" transform="translate(79.581152, 0.000000)">
							<polygon id="Star-2_10_" class="st31" points="467.2,200.2 465.7,191.6 471.9,185.4 463.4,184.2 459.6,176.3 455.8,184.2 
								447.3,185.4 453.5,191.6 452,200.2 459.6,196.1 							"/>
						</g>
					</g>
				</g>
			</g>
		</g>
		<g id="큰별_on_off" transform="translate(2.000000, 511.000000)">
		</g>
		<g id="선물아이콘48_x2A_48" transform="translate(184.000000, 97.000000)">
			<g id="GR_x2F_Icon_x2F_Icon_x5F_gift_x5F_48">
				<g id="Group_4_" transform="translate(3.000000, 4.000000)">
					<rect id="Rectangle_28_" x="448.7" y="186.5" class="st1" width="39" height="7"/>
					<rect id="Rectangle_29_" x="464.7" y="186.5" class="st1" width="8" height="28"/>
					<rect id="Rectangle_30_" x="450.7" y="193.5" class="st1" width="35" height="21"/>
					<path id="Path-4" class="st1" d="M466.9,186.5c-1.7-3.8-3.3-6.4-4.8-7.7c-1.1-1-3.4-1.5-5.2-1.1c-2,0.4-3.2,1.7-3.2,3.9
						c0,3.3,2.5,5,8.2,5H466.9z"/>
					<path id="Path-4_1_" class="st1" d="M469.4,186.5c1.7-3.8,3.3-6.4,4.8-7.7c1.1-1,3.4-1.5,5.2-1.1c2,0.4,3.2,1.7,3.2,3.9
						c0,3.3-2.5,5-8.2,5H469.4z"/>
				</g>
			</g>
		</g>
		<g id="상세흰색화살표" transform="translate(719.000000, 119.000000)">
			<g id="Group-12_1_" transform="translate(40.849188, 0.000000)">
				<path id="Combined-Shape-Copy_1_" class="st2" d="M482.6,187c0.1,0.4-0.1,0.7-0.4,1l-10,8.7c-0.5,0.4-1.2,0.4-1.7,0l-0.1-0.1
					c0,0-0.1-0.1-0.1-0.1c-0.4-0.5-0.3-1.1,0.1-1.5l9.2-8l-9.2-8c-0.5-0.4-0.5-1.1-0.1-1.5c0,0,0.1-0.1,0.1-0.1l0.1-0.1
					c0.5-0.4,1.2-0.4,1.7,0l10,8.7C482.5,186.3,482.7,186.7,482.6,187z"/>
				<path id="Line" class="st32" d="M447.7,187.1h32.9"/>
			</g>
			
				<g id="Group-12-Copy-2" transform="translate(18.864144, 11.000000) scale(-1, 1) translate(-18.864144, -11.000000) translate(0.864144, 0.000000)">
				<path id="Combined-Shape-Copy_2_" class="st2" d="M-411.7,187c0.1,0.4-0.1,0.7-0.4,1l-10,8.7c-0.5,0.4-1.2,0.4-1.7,0l-0.1-0.1
					c0,0-0.1-0.1-0.1-0.1c-0.4-0.5-0.3-1.1,0.1-1.5l9.2-8l-9.2-8c-0.5-0.4-0.5-1.1-0.1-1.5c0,0,0.1-0.1,0.1-0.1l0.1-0.1
					c0.5-0.4,1.2-0.4,1.7,0l10,8.7C-411.8,186.3-411.7,186.7-411.7,187z"/>
				<path id="Line_1_" class="st32" d="M-446.7,187.1h32.9"/>
			</g>
		</g>
		<g id="주문마감아이콘" transform="translate(481.000000, 352.000000)">
			<g id="GR_x2F_Component_x2F_icon_x5F_time">
				<path id="Oval_13_" class="st17" d="M462.1,176c7.7,0,13.9,6.3,13.9,14s-6.2,14-13.9,14c-7.7,0-13.9-6.3-13.9-14h3
					c0,6.1,4.9,11,11,11c6.1,0,11-4.9,11-11s-4.9-11-11-11V176z M462.1,176c7.7,0,13.9,6.3,13.9,14s-6.2,14-13.9,14
					c-7.7,0-13.9-6.3-13.9-14h3c0,6.1,4.9,11,11,11c6.1,0,11-4.9,11-11s-4.9-11-11-11V176z"/>
				<polyline id="Path-2_3_" class="st19" points="461.1,184 461.1,191 467.1,191 				"/>
				
					<ellipse id="Oval_14_" transform="matrix(0.5736 -0.8191 0.8191 0.5736 40.7125 448.0848)" class="st17" cx="450.7" cy="184.9" rx="2" ry="2"/>
				
					<ellipse id="Oval_15_" transform="matrix(0.8829 -0.4695 0.4695 0.8829 -30.5283 235.3277)" class="st17" cx="456.7" cy="178.9" rx="2" ry="2"/>
			</g>
		</g>
		<g id="메뉴확장형아이콘76_x2A_76" transform="translate(0.000000, 176.000000)">
			<g id="PD_x2F_Component_x2F_btn_x5F_like_1_" transform="translate(152.000000, 0.000000)">
				<g id="Group_5_">
					<ellipse id="Oval_16_" class="st33" cx="484.9" cy="214" rx="37.7" ry="38"/>
					<g id="GR_x2F_Icon_x2F_Icon_x5F_like_x5F_on" transform="translate(18.866996, 22.971286)">
						<path id="Stroke-9_2_" class="st34" d="M466.3,209.7l15.8-15.4c3.7-4.1,3.7-10.9,0-15.1c-3.7-4.1-9.8-4.1-13.5,0l-2.6,2.9
							l-2.5-2.8c-3.7-4.1-9.8-4.1-13.5,0c-3.7,4.1-3.7,10.9,0,15.1l15.6,15.4C465.8,209.8,466.1,209.8,466.3,209.7z"/>
					</g>
				</g>
			</g>
			<g id="PD_x2F_Component_x2F_btn_x5F_share" transform="translate(608.000000, -0.000000)">
				<ellipse id="Oval_17_" class="st33" cx="484.9" cy="214" rx="37.7" ry="38"/>
				<g id="GR_x2F_Icon_x2F_Icon_x5F_share" transform="translate(19.859996, 21.972534)">
					<g id="if_button_share_352893">
						<polyline id="path3791" class="st13" points="473.6,180.6 451.6,191.5 473.6,202.4 						"/>
						<path id="path2985" class="st35" d="M477.9,180.6c0,2.4-2,4.4-4.4,4.4s-4.4-2-4.4-4.4c0-2.4,2-4.4,4.4-4.4
							S477.9,178.2,477.9,180.6z"/>
						<path id="path2985-1" class="st35" d="M477.9,202.4c0,2.4-2,4.4-4.4,4.4s-4.4-2-4.4-4.4c0-2.4,2-4.4,4.4-4.4
							S477.9,200,477.9,202.4z"/>
						<path id="path2985-1-7" class="st35" d="M456,191.5c0,2.4-2,4.4-4.4,4.4s-4.4-2-4.4-4.4c0-2.4,2-4.4,4.4-4.4
							S456,189.1,456,191.5z"/>
					</g>
				</g>
			</g>
			<g id="PD_x2F_Component_x2F_btn_x5F_alarm" transform="translate(228.000000, 0.000000)">
				<circle id="Oval_18_" class="st11" cx="485.2" cy="214" r="38"/>
				<text transform="matrix(1 0 0 1 461.8117 211.0417)" class="st12 st8 st36">재입고</text>
				<text transform="matrix(1 0 0 1 502.3117 211.0417)" class="st12 st37 st36"> </text>
				<text transform="matrix(1 0 0 1 469.5967 232.0417)" class="st12 st8 st36">알림</text>
			</g>
			<g id="PD_x2F_Component_x2F_btn_x5F_recipe" transform="translate(532.000000, -0.000000)">
				<g id="Group_7_">
					<ellipse id="Oval_19_" class="st33" cx="484.9" cy="214" rx="37.7" ry="38"/>
					<g id="PD_x2F_Component_x2F_icon_x5F_recipe" transform="translate(16.880997, 20.973783)">
						<g id="Group_6_">
							<path id="Path_9_" class="st12" d="M481.8,179v24.2c0,2.6-2.3,4.8-5.1,4.8h-23l-0.6,3h23.6c4.4,0,8-3.5,8-7.8V176h-28.7v20.1
								h3V179H481.8z"/>
							<path id="Rectangle_31_" class="st12" d="M450.1,198v7c0,1.7,1.3,3,3,3s3-1.3,3-3v-7H450.1z M447.2,195h11.9v10
								c0,3.3-2.7,6-6,6c-3.3,0-6-2.7-6-6V195z"/>
							<path id="Path-4_2_" class="st13" d="M464,187.5h8.9"/>
							<path id="Path-4_3_" class="st13" d="M464,193.5H477"/>
						</g>
					</g>
				</g>
			</g>
			<g id="PD_x2F_Component_x2F_btn_x5F_like_2_" transform="translate(76.000000, 0.000000)">
				<g>
					<circle id="Oval_20_" class="st11" cx="485.2" cy="214" r="38"/>
					<g id="GR_x2F_Icon_x2F_lcon_x5F_like_x5F_off" transform="translate(14.000000, 14.000000)">
						<path id="Stroke-9_3_" class="st13" d="M471.1,216.9l15.2-14.7c3.2-3.6,3.2-9.5,0-13.1c-3.2-3.5-8.2-3.5-11.4,0l-3.8,4.1
							L470,192l-2.5-2.8c-3.2-3.5-8.2-3.5-11.4,0c-3.2,3.6-3.2,9.5-0.1,13L471.1,216.9z"/>
					</g>
				</g>
			</g>
			<g id="PD_x2F_Component_x2F_btn_x5F_buy_1_">
				<g>
					<circle id="Oval_21_" class="st11" cx="485.2" cy="214" r="38"/>
					<g id="GR_x2F_Icon_x2F_lcon_x5F_cart" transform="translate(14.000000, 14.000000)">
						<g id="GR_x2F_Header_x2F_btn_x5F_shopping">
							<rect id="Rectangle-Copy-4" x="447.2" y="176" class="st0" width="48" height="48"/>
							<g id="Group-5_5_" transform="translate(4.166667, 9.291667)">
								<path id="Path-2_4_" class="st13" d="M447.2,176.3h6.1l6.2,23.4h16.9c3.1,0,5.1-1.8,5.8-5.3c0.8-3.1,1.6-6.6,2.3-10.5h-28"
									/>
								<circle id="Oval_22_" class="st14" cx="462" cy="207.3" r="2.3"/>
								<circle id="Oval_23_" class="st14" cx="475.2" cy="207.3" r="2.3"/>
							</g>
						</g>
					</g>
				</g>
			</g>
			<g id="Group-4_1_" transform="translate(304.000000, 0.000000)">
				<circle id="Oval_24_" class="st7" cx="485.2" cy="214" r="38"/>
				<text transform="matrix(1 0 0 1 461.8117 211.0417)" class="st2 st8 st36">재입고</text>
				<text transform="matrix(1 0 0 1 502.3117 211.0417)" class="st2 st37 st36"> </text>
				<text transform="matrix(1 0 0 1 469.5967 232.0417)" class="st2 st8 st36">알림</text>
			</g>
			<g id="PD_x2F_Component_x2F_btn_x5F_alarm_1_" transform="translate(380.000000, 0.000000)">
				<circle id="Oval_25_" class="st11" cx="485.2" cy="214" r="38"/>
				<text transform="matrix(1 0 0 1 461.8117 211.0417)" class="st12 st8 st36">재판매</text>
				<text transform="matrix(1 0 0 1 502.3117 211.0417)" class="st12 st37 st36"> </text>
				<text transform="matrix(1 0 0 1 469.5967 232.0417)" class="st12 st8 st36">알림</text>
			</g>
			<g id="Group-8" transform="translate(456.000000, 0.000000)">
				<circle id="Oval_26_" class="st7" cx="485.2" cy="214" r="38"/>
				<text transform="matrix(1 0 0 1 461.8117 211.0417)" class="st2 st8 st36">재판매</text>
				<text transform="matrix(1 0 0 1 502.3117 211.0417)" class="st2 st37 st36"> </text>
				<text transform="matrix(1 0 0 1 469.5966 232.0417)" class="st2 st8 st36">알림</text>
			</g>
		</g>
		<g id="동영상버튼모음68_x2A_68" transform="translate(534.000000, 407.000000)">
			<g id="Group-7" transform="translate(203.215385, 0.000000)">
				<g id="GR_x2F_Component_x2F_btn_x5F_stop">
					<g id="Group-12_2_" class="st38">
						<g id="menu_x5F_list_x2F_btn_x5F_stop_x5F_48">
							<ellipse id="Oval-3" cx="475.1" cy="204" rx="27.9" ry="28"/>
						</g>
					</g>
					<path id="Rectangle_32_" class="st2" d="M467.6,197h3c0.3,0,0.5,0.2,0.5,0.5v14c0,0.3-0.2,0.5-0.5,0.5h-3
						c-0.3,0-0.5-0.2-0.5-0.5v-14C467.1,197.3,467.3,197,467.6,197z"/>
					<path id="Rectangle_33_" class="st2" d="M479.5,197h3c0.3,0,0.5,0.2,0.5,0.5v14c0,0.3-0.2,0.5-0.5,0.5h-3
						c-0.3,0-0.5-0.2-0.5-0.5v-14C479,197.3,479.3,197,479.5,197z"/>
				</g>
			</g>
			<g id="Group-6_1_" transform="translate(135.476923, 0.000000)">
				<g id="GR_x2F_Component_x2F_btn_x5F_play">
					<g id="menu_x5F_list_x2F_btn_x5F_play_x5F_48">
						<g id="Group_8_">
							<ellipse id="Oval-3_1_" class="st39" cx="475.1" cy="204" rx="27.9" ry="28"/>
							<path id="Triangle-2_1_" class="st2" d="M483.8,204.5l-14.9,8.5c-0.3,0.1-0.6,0.1-0.7-0.2c0-0.1-0.1-0.2-0.1-0.3v-16.9
								c0-0.3,0.2-0.5,0.5-0.5c0.1,0,0.2,0,0.3,0.1l14.9,8.5c0.3,0.1,0.3,0.5,0.2,0.7C483.9,204.4,483.8,204.5,483.8,204.5z"/>
						</g>
					</g>
				</g>
			</g>
			<g id="Group-5_6_" transform="translate(67.738462, 0.000000)">
				<g id="GR_x2F_Component_x2F_btn_x5F_sound_x5F_on">
					<g id="Group-10_1_">
						<ellipse id="Oval-3_2_" class="st39" cx="475.1" cy="204" rx="27.9" ry="28"/>
						<polygon id="Combined-Shape_7_" class="st40" points="461.1,199.7 461.1,209.7 465.4,209.7 474.1,215 474.1,194.5 
							465.4,199.7 						"/>
						<path id="Oval_27_" class="st40" d="M479,208c1.7,0,3-1.3,3-3c0-1.7-1.3-3-3-3"/>
						<path id="Oval-Copy_2_" class="st40" d="M479,213c4.4,0,8-3.6,8-8c0-4.4-3.6-8-8-8"/>
					</g>
				</g>
			</g>
			<g id="Group-4_2_">
				<g id="GR_x2F_Component_x2F_btn_x5F_sound_x5F_off">
					<g id="Group-9_2_">
						<ellipse id="Oval-3_3_" class="st39" cx="475.1" cy="204" rx="27.9" ry="28"/>
						<polygon id="Combined-Shape_8_" class="st40" points="461.1,199.7 461.1,209.7 465.4,209.7 474.1,215 474.1,194.5 
							465.4,199.7 						"/>
						<g id="Group-6_2_" transform="translate(32.873077, 24.000000)">
							<path id="Rectangle_34_" class="st40" d="M448.6,177.5l6.3,6.4c0.2,0.2,0.2,0.5,0,0.7l0,0c-0.2,0.2-0.5,0.2-0.7,0
								c0,0,0,0,0,0l-6.3-6.4c-0.2-0.2-0.2-0.5,0-0.7l0,0C448.1,177.3,448.4,177.3,448.6,177.5C448.6,177.5,448.6,177.5,448.6,177.5
								z"/>
							<path id="Rectangle-Copy-2_1_" class="st40" d="M455,177.5l-6.3,6.4c-0.2,0.2-0.5,0.2-0.7,0c0,0,0,0,0,0l0,0
								c-0.2-0.2-0.2-0.5,0-0.7l6.3-6.4c0.2-0.2,0.5-0.2,0.7,0c0,0,0,0,0,0l0,0C455.2,177,455.2,177.3,455,177.5z"/>
						</g>
					</g>
				</g>
			</g>
		</g>
		<g id="체크아이콘56_x2A_56" transform="translate(632.000000, 478.000000)">
			<g id="GR_x2F_Icon_x2F_Icon_x5F_input_x5F_success" transform="translate(4.000000, 4.000000)">
				<g id="Icon_check">
					<g id="Path-6">
						<polyline id="path-1_1_" class="st41" points="488.2,190 467.4,210 454.2,197.4 						"/>
					</g>
				</g>
			</g>
		</g>
		<g id="플로팅버튼재입고버튼56_x2A_56" transform="translate(688.000000, 478.000000)">
			<g id="Group-7_1_" transform="translate(56.000000, 0.000000)">
				<g id="GR_x2F_Icon_x2F_Icon_x5F_bell_x5F_w" transform="translate(10.000000, 9.000000)">
					<g id="Group-24">
						<path id="Rectangle_35_" class="st42" d="M452.7,206.5h25V193c0-6.9-5.6-12.5-12.5-12.5s-12.5,5.6-12.5,12.5V206.5z"/>
						<path id="Rectangle_36_" class="st21" d="M464.7,176h1c0.6,0,1,0.4,1,1v7c0,0.6-0.4,1-1,1h-1c-0.6,0-1-0.4-1-1v-7
							C463.7,176.5,464.1,176,464.7,176z"/>
						<path id="Rectangle-Copy-10_1_" class="st21" d="M483.2,206v1c0,0.6-0.4,1-1,1h-34c-0.6,0-1-0.4-1-1v-1c0-0.6,0.4-1,1-1h34
							C482.7,205,483.2,205.5,483.2,206z"/>
						<path id="Rectangle-Copy-11_1_" class="st21" d="M469.2,212v1c0,0.6-0.4,1-1,1h-6c-0.6,0-1-0.4-1-1v-1c0-0.6,0.4-1,1-1h6
							C468.7,211,469.2,211.5,469.2,212z"/>
					</g>
				</g>
			</g>
			<g id="Group-7_2_" transform="translate(-0.000000, 0.000000)">
				<g id="GR_x2F_Icon_x2F_Icon_x5F_bell_x5F_w_1_" transform="translate(10.000000, 9.000000)">
					<g id="Group-24_1_">
						<path id="Rectangle_37_" class="st1" d="M452.7,206.5h25V193c0-6.9-5.6-12.5-12.5-12.5s-12.5,5.6-12.5,12.5V206.5z"/>
						<path id="Rectangle_38_" class="st22" d="M464.7,176h1c0.6,0,1,0.4,1,1v7c0,0.6-0.4,1-1,1h-1c-0.6,0-1-0.4-1-1v-7
							C463.7,176.5,464.1,176,464.7,176z"/>
						<path id="Rectangle-Copy-10_2_" class="st22" d="M483.2,206v1c0,0.6-0.4,1-1,1h-34c-0.6,0-1-0.4-1-1v-1c0-0.6,0.4-1,1-1h34
							C482.7,205,483.2,205.5,483.2,206z"/>
						<path id="Rectangle-Copy-11_2_" class="st22" d="M469.2,212v1c0,0.6-0.4,1-1,1h-6c-0.6,0-1-0.4-1-1v-1c0-0.6,0.4-1,1-1h6
							C468.7,211,469.2,211.5,469.2,212z"/>
					</g>
				</g>
			</g>
		</g>
		<g id="리뷰별점_on_off" transform="translate(4.000000, 98.000000)">
			<g id="Group-3_1_" transform="translate(1.987730, 0.000000)" class="st30">
				<g id="GR_x2F_Icon_x2F_Icon_x5F_star_x5F_32_x5F_off-Copy-1">
					<polygon id="Star-2_31_" class="st43" points="465.6,198.2 464.2,190.3 469.9,184.7 462.1,183.5 458.6,176.3 455.1,183.5 
						447.3,184.7 453,190.3 451.6,198.2 458.6,194.5 					"/>
				</g>
				<g id="GR_x2F_Icon_x2F_Icon_x5F_star_x5F_32_x5F_off-Copy-1_1_" transform="translate(33.791411, 0.000000)">
					<polygon id="Star-2_32_" class="st43" points="465.6,198.2 464.2,190.3 469.9,184.7 462.1,183.5 458.6,176.3 455.1,183.5 
						447.3,184.7 453,190.3 451.6,198.2 458.6,194.5 					"/>
				</g>
				<g id="GR_x2F_Icon_x2F_Icon_x5F_star_x5F_32_x5F_off-Copy-1_2_" transform="translate(67.582822, 0.000000)">
					<polygon id="Star-2_33_" class="st43" points="465.6,198.2 464.2,190.3 469.9,184.7 462.1,183.5 458.6,176.3 455.1,183.5 
						447.3,184.7 453,190.3 451.6,198.2 458.6,194.5 					"/>
				</g>
				<g id="GR_x2F_Icon_x2F_Icon_x5F_star_x5F_32_x5F_off-Copy-1_3_" transform="translate(101.374233, 0.000000)">
					<polygon id="Star-2_34_" class="st43" points="465.6,198.2 464.2,190.3 469.9,184.7 462.1,183.5 458.6,176.3 455.1,183.5 
						447.3,184.7 453,190.3 451.6,198.2 458.6,194.5 					"/>
				</g>
				<g id="GR_x2F_Icon_x2F_Icon_x5F_star_x5F_32_x5F_off-Copy-1_4_" transform="translate(135.165644, 0.000000)">
					<polygon id="Star-2_35_" class="st43" points="465.6,198.2 464.2,190.3 469.9,184.7 462.1,183.5 458.6,176.3 455.1,183.5 
						447.3,184.7 453,190.3 451.6,198.2 458.6,194.5 					"/>
				</g>
			</g>
			<g id="Group-2_2_" transform="translate(0.000000, 30.000000)">
				<g id="GR_x2F_Icon_x2F_Icon_x5F_star_x5F_32_x5F_on_1_">
					<polygon id="Star-2_36_" class="st23" points="460.6,197.6 452.3,202 453.9,192.6 447.2,186 456.4,184.6 460.6,176 
						464.7,184.6 474,186 467.3,192.6 468.9,202 					"/>
				</g>
				<g id="GR_x2F_Icon_x2F_Icon_x5F_star_x5F_32_x5F_on_2_" transform="translate(135.165644, 0.000000)">
					<polygon id="Star-2_37_" class="st23" points="460.6,197.6 452.3,202 453.9,192.6 447.2,186 456.4,184.6 460.6,176 
						464.7,184.6 474,186 467.3,192.6 468.9,202 					"/>
				</g>
				<g id="GR_x2F_Icon_x2F_Icon_x5F_star_x5F_32_x5F_on_3_" transform="translate(33.791411, 0.000000)">
					<polygon id="Star-2_38_" class="st23" points="460.6,197.6 452.3,202 453.9,192.6 447.2,186 456.4,184.6 460.6,176 
						464.7,184.6 474,186 467.3,192.6 468.9,202 					"/>
				</g>
				<g id="GR_x2F_Icon_x2F_Icon_x5F_star_x5F_32_x5F_on_4_" transform="translate(67.582822, 0.000000)">
					<polygon id="Star-2_39_" class="st23" points="460.6,197.6 452.3,202 453.9,192.6 447.2,186 456.4,184.6 460.6,176 
						464.7,184.6 474,186 467.3,192.6 468.9,202 					"/>
				</g>
				<g id="GR_x2F_Icon_x2F_Icon_x5F_star_x5F_32_x5F_on_5_" transform="translate(101.374233, 0.000000)">
					<polygon id="Star-2_40_" class="st23" points="460.6,197.6 452.3,202 453.9,192.6 447.2,186 456.4,184.6 460.6,176 
						464.7,184.6 474,186 467.3,192.6 468.9,202 					"/>
				</g>
			</g>
		</g>
		<g id="쉐프팁말풍선14_x2A_58" transform="translate(786.000000, 176.000000)">
			<g id="Group-11_1_" transform="translate(0.000000, -0.000000)">
				<path id="Rectangle_39_" class="st44" d="M460.2,224l-13,0.1v3l6.3,6.5c0.6,0.6,1.5,0.6,2,0c0.1-0.1,0.2-0.3,0.3-0.4L460.2,224z
					"/>
				<path id="Rectangle_40_" class="st23" d="M683.3,176H450c-1.6,0-2.9,1.3-2.9,2.9V227l0,0c0-1.4,1.1-2.6,2.6-2.6h233.6
					c1.6,0,2.9-1.3,2.9-2.9v-42.7C686.2,177.3,684.9,176,683.3,176z"/>
			</g>
		</g>
		<g id="마케팅메시지닫기버튼60_x2A_60" transform="translate(740.000000, 270.000000)">
			<g id="GR_x2F_Header_x2F_btn_x5F_close_x5F_64_x5F_w" transform="translate(10.000000, 10.000000)">
				<g id="icon_x2F_header_x2F_menu_x5F_green_1_">
					<polygon id="Shape_7_" class="st0" points="447.2,176 487.2,176 487.2,216 447.2,216 					"/>
					<g id="Group_9_" transform="translate(9.166667, 9.166667)">
						<polygon id="Rectangle-2_2_" class="st4" points="447.2,177.2 448.3,176 469.6,197.3 468.4,198.4 						"/>
						<polygon id="Rectangle-2_3_" class="st4" points="469.6,177.2 468.4,176 447.2,197.3 448.3,198.4 						"/>
					</g>
				</g>
			</g>
		</g>
		<g id="마케팅메시지98_x2A_36" transform="translate(450.000000, 0.000000)">
			<g id="icon_mdtalk">
				<path id="MD_x2019_s-talk" class="st4" d="M460.4,202l0-8l-3.8,6.5h-1.8l-3.7-6.3v7.7h-3.8v-15h3.4l5.1,8.7l5-8.7h3.4l0,15
					H460.4z M466.2,187h6.9c1.6,0,3,0.3,4.2,0.9s2.2,1.5,2.9,2.6c0.7,1.1,1,2.4,1,4c0,1.5-0.3,2.8-1,4c-0.7,1.1-1.6,2-2.9,2.6
					s-2.6,0.9-4.2,0.9h-6.9V187z M472.9,198c1.3,0,2.3-0.4,3.1-1.1c0.8-0.7,1.2-1.7,1.2-2.9c0-1.3-0.4-2.2-1.2-2.9
					c-0.8-0.7-1.8-1.1-3.1-1.1h-2.7v8H472.9z M484.7,186c0.7,0,1.3,0.2,1.8,0.7s0.7,1,0.7,1.7c0,0.3,0,0.7-0.1,1
					c-0.1,0.3-0.3,0.8-0.6,1.5l-1.4,3.1h-2.6l1-3.5c-0.4-0.2-0.7-0.5-1-0.8c-0.2-0.4-0.3-0.8-0.3-1.3c0-0.7,0.2-1.3,0.7-1.7
					C483.3,186.3,483.9,186,484.7,186z M491.4,202c-1,0-1.9-0.1-2.9-0.3c-1-0.2-1.7-0.5-2.3-0.9l1.2-2.8c0.5,0.3,1.2,0.6,1.9,0.8
					c0.7,0.2,1.5,0.3,2.2,0.3c0.7,0,1.1-0.1,1.4-0.2s0.4-0.3,0.4-0.6c0-0.3-0.2-0.4-0.5-0.5c-0.3-0.1-0.9-0.2-1.6-0.3
					c-0.9-0.1-1.7-0.3-2.4-0.5s-1.2-0.5-1.7-1s-0.7-1.2-0.7-2.1c0-0.7,0.2-1.4,0.7-2c0.4-0.6,1.1-1,2-1.4c0.9-0.3,1.9-0.5,3.1-0.5
					c0.9,0,1.7,0.1,2.5,0.3s1.5,0.4,2.1,0.7l-1.2,2.8c-1-0.6-2.2-0.9-3.4-0.9c-0.6,0-1.1,0.1-1.4,0.2c-0.3,0.1-0.5,0.3-0.5,0.6
					c0,0.3,0.2,0.5,0.5,0.6c0.3,0.1,0.9,0.2,1.6,0.3c1,0.1,1.8,0.3,2.4,0.5s1.2,0.5,1.7,1c0.5,0.5,0.7,1.2,0.7,2.1
					c0,0.7-0.2,1.4-0.7,2c-0.4,0.6-1.1,1-2,1.4C493.6,201.9,492.6,202,491.4,202z M512.2,201.4c-0.3,0.2-0.7,0.4-1.2,0.5
					s-1,0.2-1.5,0.2c-1.5,0-2.6-0.4-3.4-1.1c-0.8-0.7-1.2-1.8-1.2-3.2v-3.8h-1.6v-3h1.6V188h4v2.9h2.6v3h-2.6v3.8
					c0,0.4,0.1,0.7,0.3,0.9c0.2,0.2,0.5,0.3,0.9,0.3c0.5,0,0.9-0.1,1.2-0.4L512.2,201.4z M517.5,190c1.8,0,3.2,0.4,4.2,1.3
					c1,0.9,1.4,2.2,1.4,4v6.5h-3.6v-1.5c-0.6,1.1-1.6,1.7-3.3,1.7c-0.9,0-1.6-0.2-2.2-0.5s-1.1-0.7-1.4-1.3
					c-0.3-0.5-0.5-1.1-0.5-1.8c0-1.1,0.4-2,1.2-2.6c0.8-0.6,2-0.9,3.7-0.9h2.2c-0.1-1.2-0.9-1.8-2.3-1.8c-0.5,0-1.1,0.1-1.6,0.3
					c-0.5,0.2-1,0.4-1.4,0.7l-1.3-2.8c0.6-0.4,1.4-0.8,2.2-1S516.6,190,517.5,190z M517.5,199c0.4,0,0.8-0.1,1.1-0.3
					c0.3-0.2,0.5-0.5,0.7-0.9V197h-1.5c-1,0-1.5,0.3-1.5,1c0,0.3,0.1,0.5,0.3,0.7C516.7,199,517.1,199,517.5,199z M525.2,186h4v16
					h-4V186z M536.3,197.9l-1.2,1.2v2.9h-3.9v-16h3.9v8.4l4-4.1h4.7l-4.7,5l5.1,6.7h-4.8L536.3,197.9z"/>
			</g>
		</g>
		<g id="플로팅모듈-닫기버튼-60_x2A_60" transform="translate(572.000000, 478.000000)">
			<g id="GR_x2F_Header_x2F_btn_x5F_close_x5F_64-Copy-1" transform="translate(10.000000, 10.000000)">
				<g id="icon_x2F_header_x2F_menu_x5F_green_2_">
					<polygon id="Shape_8_" class="st0" points="447.2,176 487.2,176 487.2,216 447.2,216 					"/>
					<g id="Group_10_" transform="translate(9.166667, 9.166667)">
						<polygon id="Rectangle-2_4_" class="st45" points="447.2,177.2 448.3,176 469.6,197.3 468.4,198.4 						"/>
						<polygon id="Rectangle-2_5_" class="st45" points="469.6,177.2 468.4,176 447.2,197.3 448.3,198.4 						"/>
					</g>
				</g>
			</g>
		</g>
		<g id="복합모듈plus아이콘56_x2A_56" transform="translate(360.000000, 100.000000)">
			<circle id="Oval_28_" class="st46" cx="475.2" cy="204" r="28"/>
			<g id="icon_plus" transform="translate(16.000000, 16.000000)">
				<rect id="Rectangle_41_" x="447.2" y="186" class="st7" width="24" height="4"/>
				<rect id="Rectangle_42_" x="457.2" y="176" class="st7" width="4" height="24"/>
			</g>
		</g>
	</g>
</g>
<image style="overflow:visible;enable-background:new    ;" width="280" height="248" xlink:href="36D6CFF5.png"  transform="matrix(0.1536 0 0 0.1573 545 762)">
</image>
<image style="overflow:visible;enable-background:new    ;" width="164" height="148" xlink:href="36D6CFF7.png"  transform="matrix(0.2073 0 0 0.2095 591 763)">
</image>
<image style="overflow:visible;enable-background:new    ;" width="120" height="128" xlink:href="36D6CFF2.png"  transform="matrix(0.2333 0 0 0.2344 639 763)">
</image>
<image style="overflow:visible;enable-background:new    ;" width="128" height="119" xlink:href="36D6CFF3.png"  transform="matrix(0.2109 0 0 0.2101 466 767)">
</image>
<image style="overflow:visible;enable-background:new    ;" width="96" height="147" xlink:href="36D6CFFD.png"  transform="matrix(0.2188 0 0 0.2109 469 809)">
</image>
<g id="메뉴" transform="translate(64.000000, 0.000000)">
	<rect id="Rectangle-Copy-4_1_" x="712" y="754" class="st0" width="64" height="64"/>
	<path id="Combined-Shape_9_" class="st17" d="M724,771h40c0.6,0,1,0.4,1,1v1c0,0.6-0.4,1-1,1h-40c-0.6,0-1-0.4-1-1v-1
		C723,771.4,723.4,771,724,771z M724,798h40c0.6,0,1,0.4,1,1v1c0,0.6-0.4,1-1,1h-40c-0.6,0-1-0.4-1-1v-1
		C723,798.4,723.4,798,724,798z M727.5,785h33c0.6,0,1,0.4,1,1v1c0,0.6-0.4,1-1,1h-33c-0.6,0-1-0.4-1-1v-1
		C726.5,785.4,726.9,785,727.5,785z"/>
</g>
<g id="메뉴_1_" transform="translate(64.000000, 0.000000)">
	<g id="btn_menu_w" transform="translate(10.000000, 16.000000)">
		<path id="Combined-Shape_11_" class="st47" d="M612.5,752.8h26.4c0.4,0,0.7,0.3,0.7,0.7v0.7c0,0.4-0.3,0.7-0.7,0.7h-26.4
			c-0.4,0-0.7-0.3-0.7-0.7v-0.7C611.8,753.1,612.1,752.8,612.5,752.8z M612.5,770.5h26.4c0.4,0,0.7,0.3,0.7,0.7v0.7
			c0,0.4-0.3,0.7-0.7,0.7h-26.4c-0.4,0-0.7-0.3-0.7-0.7v-0.7C611.8,770.8,612.1,770.5,612.5,770.5z M616.4,762h18.5
			c0.4,0,0.7,0.3,0.7,0.7v0.7c0,0.4-0.3,0.7-0.7,0.7h-18.5c-0.4,0-0.7-0.3-0.7-0.7v-0.7C615.8,762.3,616.1,762,616.4,762z"/>
		<path id="Combined-Shape_10_" class="st2" d="M611.2,751.5h26.4c0.4,0,0.7,0.3,0.7,0.7v0.7c0,0.4-0.3,0.7-0.7,0.7h-26.4
			c-0.4,0-0.7-0.3-0.7-0.7v-0.7C610.5,751.8,610.8,751.5,611.2,751.5z M611.2,769.2h26.4c0.4,0,0.7,0.3,0.7,0.7v0.7
			c0,0.4-0.3,0.7-0.7,0.7h-26.4c-0.4,0-0.7-0.3-0.7-0.7v-0.7C610.5,769.5,610.8,769.2,611.2,769.2z M615.1,760.7h18.5
			c0.4,0,0.7,0.3,0.7,0.7v0.7c0,0.4-0.3,0.7-0.7,0.7h-18.5c-0.4,0-0.7-0.3-0.7-0.7v-0.7C614.5,761,614.7,760.7,615.1,760.7z"/>
	</g>
</g>
<g id="Group_11_">
	<path id="Oval_29_" class="st33" d="M534,770.5c0,0,0,0.8,0,1.7s0,1.7,0,1.7s0-0.8,0-1.7S534,770.5,534,770.5z"/>
	<g id="GR_Icon_Icon_like_on">
		<path id="Stroke-9_4_" class="st34" d="M520.6,788l8.2-8c1.9-2.3,1.9-5.6,0-7.8c-1.7-1.9-4.6-2.2-6.5-0.5
			c-0.2,0.2-0.3,0.3-0.5,0.5l-1.4,1.5l-1.3-1.5c-1.7-1.9-4.6-2.2-6.5-0.5c-0.2,0.2-0.3,0.3-0.5,0.5c-1.9,2.3-1.9,5.6,0,7.8l8.1,8
			C520.3,788.1,520.5,788.1,520.6,788z"/>
	</g>
</g>
</svg>
